<?xml version="1.0"?>
<svg width="82" height="93" xmlns="http://www.w3.org/2000/svg">

 <g>
  <title>Layer 1</title>
  <g fill="#9C162A" id="svg_1">
   <path id="svg_2" d="m16.800001,9.9c0.700001,0 1.400002,-0.2 2,-0.599999l15.799997,15.7c-2.299995,1.200001 -3.699993,2.9 -3.699993,4.900002l20.199993,0c0,-2.000002 -1.399994,-3.700001 -3.599998,-4.900002l15.800003,-15.8c0.599998,0.400001 1.299995,0.6 2,0.6c2.199997,0 3.899994,-1.8 3.899994,-3.900001s-1.699997,-3.9 -3.899994,-3.9c-2.200005,0 -3.900002,1.8 -3.900002,3.9c0,0.8 0.199997,1.6 0.699997,2.200001l-16.399994,16.299999c-1.400002,-0.5 -3,-0.799999 -4.799999,-0.799999c-1.700001,0 -3.300007,0.299999 -4.600002,0.699999l-16.200001,-16.199999c0.4,-0.6 0.699999,-1.400001 0.699999,-2.200001c-0.099998,-2.099999 -1.799999,-3.9 -4,-3.9c-2.199999,0 -3.9,1.8 -3.9,3.9s1.700001,4 3.9,4"/>
   <path id="svg_3" d="m74.400002,33.099998l-66.799999,0c-2.3,0 -4.200001,1.900002 -4.200001,4.200001l0,22.700001l8.700001,0l0,-18.200001l7.799999,0l3.5,6.100002l3.500002,-6.100002l0,0l3.499998,6.100002l3.500004,-6.100002l0,0l3.499996,6.100002l3.500004,-6.100002l0,0l3.499996,6.100002l3.500004,-6.100002l0,0l3.499996,6.100002l3.500004,-6.100002l0,0l3.499996,6.100002l3.5,-6.100002l7.799995,0l0,18.200001l8.700005,0l0,-22.700001c0.099998,-2.299999 -1.700005,-4.200001 -4,-4.200001"/>
   <path id="svg_4" d="m69.800003,62.800003l0,20.5l-7.900002,0l-3.400002,-5.900002l-3.400002,5.900002l-0.199993,0l-3.400005,-5.900002l-3.400002,5.900002l-0.199993,0l-3.400005,-5.900002l-3.400002,5.900002l-0.199993,0l-3.400005,-5.900002l-3.499996,5.900002l-0.200001,0l-3.400002,-5.900002l-3.4,5.900002l-0.200001,0l-3.4,-5.900002l-3.4,5.900002l-7.9,0l0,-20.5l-8.700001,0l0,25.099998c0,2.299995 1.900001,4.199997 4.200001,4.199997l66.799999,0c2.299995,0 4.199997,-1.900002 4.199997,-4.199997l0,-25.099998l-8.799995,0z"/>
  </g>
 </g>
</svg>
